<svg xmlns="http://www.w3.org/2000/svg" viewBox="0 0 543.31 34.85"><defs><style>.cls-1{fill:#0065f2;}</style></defs><title>Asset 1</title><g id="Layer_2" data-name="Layer 2"><g id="Layer_1-2" data-name="Layer 1"><path class="cls-1" d="M20,14a5.4,5.4,0,0,0-2.5-2,8.63,8.63,0,0,0-3.31-.64,8.21,8.21,0,0,0-2,.24,5.17,5.17,0,0,0-1.73.75,4,4,0,0,0-1.24,1.33,3.9,3.9,0,0,0-.47,1.94,3,3,0,0,0,1.17,2.58,11.67,11.67,0,0,0,2.91,1.55c1.15.43,2.41.86,3.79,1.26a15.47,15.47,0,0,1,3.79,1.69,9.41,9.41,0,0,1,2.91,2.85,8.52,8.52,0,0,1,1.17,4.73,10.32,10.32,0,0,1-1,4.66,9.45,9.45,0,0,1-2.64,3.31,11.4,11.4,0,0,1-3.87,2,16,16,0,0,1-4.63.66,17.56,17.56,0,0,1-5.95-1,11.45,11.45,0,0,1-4.92-3.47L5.9,32a7.42,7.42,0,0,0,2.83,2.56,8.12,8.12,0,0,0,3.73.91,7.74,7.74,0,0,0,2.06-.28,6.6,6.6,0,0,0,1.87-.84A4.53,4.53,0,0,0,17.75,33a3.86,3.86,0,0,0,.52-2,3.46,3.46,0,0,0-1.18-2.81,10.33,10.33,0,0,0-2.9-1.67C13,26,11.77,25.6,10.4,25.2a15.88,15.88,0,0,1-3.8-1.67,9.25,9.25,0,0,1-2.9-2.81A8.37,8.37,0,0,1,2.53,16a9,9,0,0,1,1.05-4.45A9.78,9.78,0,0,1,6.35,8.45,12.28,12.28,0,0,1,10.26,6.6,16.94,16.94,0,0,1,14.75,6a16.41,16.41,0,0,1,5.08.8,11.86,11.86,0,0,1,4.43,2.62Z" transform="translate(-1.45 -5.99)"/><path class="cls-1" d="M57.14,27.82a13.77,13.77,0,0,1-1,5.41,11.91,11.91,0,0,1-7,6.69,15.67,15.67,0,0,1-10.58,0,12.44,12.44,0,0,1-4.24-2.59,11.75,11.75,0,0,1-2.81-4.1,14,14,0,0,1-1-5.41v-21h5.9V27.63a9.44,9.44,0,0,0,.38,2.55A7.14,7.14,0,0,0,38,32.64a6.61,6.61,0,0,0,2.29,1.85,7.67,7.67,0,0,0,3.54.73,7.66,7.66,0,0,0,3.53-.73,6.55,6.55,0,0,0,2.3-1.85,7.14,7.14,0,0,0,1.24-2.46,9.44,9.44,0,0,0,.38-2.55V6.84h5.9Z" transform="translate(-1.45 -5.99)"/><path class="cls-1" d="M64.39,6.84H77.32a15.93,15.93,0,0,1,3.7.44,9.64,9.64,0,0,1,3.26,1.45,7.83,7.83,0,0,1,2.31,2.6,7.71,7.71,0,0,1,.89,3.84,6.81,6.81,0,0,1-1.59,4.64,8.81,8.81,0,0,1-4.17,2.62v.1a8.52,8.52,0,0,1,2.88.86,7.58,7.58,0,0,1,2.27,1.74,7.88,7.88,0,0,1,1.48,2.43,8.08,8.08,0,0,1,.54,3A8.21,8.21,0,0,1,85,38a12.42,12.42,0,0,1-4,1.57,22.89,22.89,0,0,1-4.61.47h-12ZM70.3,20.33h5.38a7.19,7.19,0,0,0,4.43-1.15,3.65,3.65,0,0,0,1.47-3A3.64,3.64,0,0,0,80.06,13a8.81,8.81,0,0,0-4.89-1H70.3Zm0,14.61h5.43a23.26,23.26,0,0,0,2.41-.14,7.3,7.3,0,0,0,2.37-.66,4.7,4.7,0,0,0,1.78-1.47,4.38,4.38,0,0,0,.7-2.6,3.92,3.92,0,0,0-1.71-3.66,10.69,10.69,0,0,0-5.32-1H70.3Z" transform="translate(-1.45 -5.99)"/><path class="cls-1" d="M111,14a5.4,5.4,0,0,0-2.5-2,8.62,8.62,0,0,0-3.3-.64,8.15,8.15,0,0,0-2,.24,5.22,5.22,0,0,0-1.74.75,4,4,0,0,0-1.24,1.33,3.9,3.9,0,0,0-.47,1.94,3,3,0,0,0,1.17,2.58,11.85,11.85,0,0,0,2.91,1.55c1.15.43,2.42.86,3.79,1.26a15.54,15.54,0,0,1,3.8,1.69,9.49,9.49,0,0,1,2.9,2.85,8.52,8.52,0,0,1,1.17,4.73,10.46,10.46,0,0,1-1,4.66,9.59,9.59,0,0,1-2.65,3.31,11.44,11.44,0,0,1-3.86,2,16.11,16.11,0,0,1-4.64.66,17.6,17.6,0,0,1-6-1,11.51,11.51,0,0,1-4.92-3.47L96.94,32a7.45,7.45,0,0,0,2.84,2.56,8.05,8.05,0,0,0,3.72.91,7.69,7.69,0,0,0,2.06-.28,6.48,6.48,0,0,0,1.87-.84A4.42,4.42,0,0,0,108.79,33a3.76,3.76,0,0,0,.52-2,3.46,3.46,0,0,0-1.17-2.81,10.39,10.39,0,0,0-2.91-1.67c-1.15-.45-2.42-.88-3.79-1.28a15.81,15.81,0,0,1-3.79-1.67,9.17,9.17,0,0,1-2.91-2.81A8.37,8.37,0,0,1,93.57,16a8.85,8.85,0,0,1,1.06-4.45,9.63,9.63,0,0,1,2.76-3.12A12.28,12.28,0,0,1,101.3,6.6,17.07,17.07,0,0,1,105.8,6a16.45,16.45,0,0,1,5.08.8,11.82,11.82,0,0,1,4.42,2.62Z" transform="translate(-1.45 -5.99)"/><path class="cls-1" d="M128.42,12.18H118.25V6.84h26.23v5.34H134.32V40h-5.9Z" transform="translate(-1.45 -5.99)"/><path class="cls-1" d="M148.51,6.84H160a24,24,0,0,1,4.61.44,12.14,12.14,0,0,1,4,1.52,8,8,0,0,1,2.76,2.91,9.31,9.31,0,0,1,1,4.63,9.24,9.24,0,0,1-2,6.05,8.58,8.58,0,0,1-5.69,2.95L173.52,40H166.4l-7.68-14h-4.31V40h-5.9ZM159,20.89c.84,0,1.68,0,2.53-.12a8,8,0,0,0,2.31-.56,3.89,3.89,0,0,0,1.71-1.36,4.3,4.3,0,0,0,.66-2.55A4,4,0,0,0,165.6,14,3.82,3.82,0,0,0,164,12.62a7.14,7.14,0,0,0-2.18-.58,18.61,18.61,0,0,0-2.32-.14h-5.1v9Z" transform="translate(-1.45 -5.99)"/><path class="cls-1" d="M188.74,6.84h5.1L208.12,40h-6.74l-3.09-7.59H183.91l-3,7.59h-6.6Zm7.49,20.51-5.11-13.49-5.19,13.49Z" transform="translate(-1.45 -5.99)"/><path class="cls-1" d="M214.31,12.18H204.14V6.84h26.23v5.34H220.21V40h-5.9Z" transform="translate(-1.45 -5.99)"/><path class="cls-1" d="M234.4,6.84h22v5.34H240.3v8.15h15.22v5.33H240.3v9h16.91V40H234.4Z" transform="translate(-1.45 -5.99)"/><path class="cls-1" d="M276.87,6.84H289.8a15.93,15.93,0,0,1,3.7.44,9.64,9.64,0,0,1,3.26,1.45,7.83,7.83,0,0,1,2.31,2.6,7.71,7.71,0,0,1,.89,3.84,6.81,6.81,0,0,1-1.59,4.64,8.81,8.81,0,0,1-4.17,2.62v.1a8.52,8.52,0,0,1,2.88.86,7.58,7.58,0,0,1,2.27,1.74,7.88,7.88,0,0,1,1.48,2.43,8.08,8.08,0,0,1,.54,3A8.21,8.21,0,0,1,297.46,38a12.42,12.42,0,0,1-4,1.57,22.89,22.89,0,0,1-4.61.47H276.87Zm5.91,13.49h5.38a7.19,7.19,0,0,0,4.43-1.15,3.65,3.65,0,0,0,1.47-3A3.64,3.64,0,0,0,292.54,13a8.81,8.81,0,0,0-4.89-1h-4.87Zm0,14.61h5.43a23.26,23.26,0,0,0,2.41-.14,7.3,7.3,0,0,0,2.37-.66,4.7,4.7,0,0,0,1.78-1.47,4.38,4.38,0,0,0,.7-2.6,3.92,3.92,0,0,0-1.71-3.66,10.69,10.69,0,0,0-5.32-1h-5.66Z" transform="translate(-1.45 -5.99)"/><path class="cls-1" d="M305.44,23.56a19.28,19.28,0,0,1,1.31-7.24,16.4,16.4,0,0,1,3.63-5.55,15.83,15.83,0,0,1,5.53-3.53A19.34,19.34,0,0,1,323,6a19.89,19.89,0,0,1,7.12,1.15,15.63,15.63,0,0,1,5.57,3.49,16,16,0,0,1,3.65,5.53,18.9,18.9,0,0,1,1.32,7.21,18.29,18.29,0,0,1-1.32,7.07,16.2,16.2,0,0,1-3.65,5.48,16.56,16.56,0,0,1-5.57,3.58,20.11,20.11,0,0,1-14.17.1,16.1,16.1,0,0,1-5.53-3.52,16.27,16.27,0,0,1-3.63-5.45A18.51,18.51,0,0,1,305.44,23.56Zm6.18-.38a14.43,14.43,0,0,0,.82,4.92A11.67,11.67,0,0,0,314.76,32a10.78,10.78,0,0,0,3.59,2.57,11.12,11.12,0,0,0,4.66.94,11.34,11.34,0,0,0,4.68-.94A10.76,10.76,0,0,0,331.3,32a11.65,11.65,0,0,0,2.31-3.89,14.19,14.19,0,0,0,.82-4.92,12.81,12.81,0,0,0-.82-4.63,11.4,11.4,0,0,0-2.31-3.77,10.52,10.52,0,0,0-3.61-2.53,11.67,11.67,0,0,0-4.68-.92,11.43,11.43,0,0,0-4.66.92,10.54,10.54,0,0,0-3.59,2.53,11.42,11.42,0,0,0-2.32,3.77A13,13,0,0,0,311.62,23.18Z" transform="translate(-1.45 -5.99)"/><path class="cls-1" d="M344.46,23.56a19.09,19.09,0,0,1,1.31-7.24,16.11,16.11,0,0,1,3.63-5.55,15.7,15.7,0,0,1,5.52-3.53A19.34,19.34,0,0,1,362,6a19.86,19.86,0,0,1,7.12,1.15,15.63,15.63,0,0,1,5.57,3.49,16.19,16.19,0,0,1,3.66,5.53,19.09,19.09,0,0,1,1.31,7.21,18.47,18.47,0,0,1-1.31,7.07,16.37,16.37,0,0,1-3.66,5.48,16.56,16.56,0,0,1-5.57,3.58,20.11,20.11,0,0,1-14.17.1,15.87,15.87,0,0,1-9.15-9A18.32,18.32,0,0,1,344.46,23.56Zm6.18-.38a14.19,14.19,0,0,0,.82,4.92A11.48,11.48,0,0,0,353.77,32a10.78,10.78,0,0,0,3.59,2.57,11.15,11.15,0,0,0,4.66.94,11.31,11.31,0,0,0,4.68-.94A10.66,10.66,0,0,0,370.31,32a11.48,11.48,0,0,0,2.31-3.89,14.19,14.19,0,0,0,.82-4.92,12.81,12.81,0,0,0-.82-4.63,11.24,11.24,0,0,0-2.31-3.77,10.43,10.43,0,0,0-3.61-2.53,11.63,11.63,0,0,0-4.68-.92,11.47,11.47,0,0,0-4.66.92,10.54,10.54,0,0,0-3.59,2.53,11.24,11.24,0,0,0-2.31,3.77A12.81,12.81,0,0,0,350.64,23.18Z" transform="translate(-1.45 -5.99)"/><path class="cls-1" d="M392,12.18H381.87V6.84H408.1v5.34H397.94V40H392Z" transform="translate(-1.45 -5.99)"/><path class="cls-1" d="M434.89,14.61A10,10,0,0,0,431.35,12a9.46,9.46,0,0,0-3.44-.66,11.47,11.47,0,0,0-4.66.92,10.5,10.5,0,0,0-3.58,2.53,11.42,11.42,0,0,0-2.32,3.77,12.81,12.81,0,0,0-.82,4.63,14.19,14.19,0,0,0,.82,4.92A11.67,11.67,0,0,0,419.67,32a10.74,10.74,0,0,0,3.58,2.57,11.15,11.15,0,0,0,4.66.94,8.55,8.55,0,0,0,3.91-1,10.65,10.65,0,0,0,3.54-3.07l4.87,3.47a13.24,13.24,0,0,1-5.48,4.49,17.06,17.06,0,0,1-6.89,1.41,19.46,19.46,0,0,1-7-1.24,15.85,15.85,0,0,1-9.16-9,18.51,18.51,0,0,1-1.31-7.07,19.28,19.28,0,0,1,1.31-7.24,16.11,16.11,0,0,1,3.63-5.55,15.83,15.83,0,0,1,5.53-3.53,19.25,19.25,0,0,1,7-1.25,16.13,16.13,0,0,1,6.26,1.2,14.59,14.59,0,0,1,5.36,4.05Z" transform="translate(-1.45 -5.99)"/><path class="cls-1" d="M454.93,6.84H460L474.32,40h-6.74l-3.09-7.59H450.11l-3,7.59h-6.6Zm7.5,20.51-5.11-13.49-5.2,13.49Z" transform="translate(-1.45 -5.99)"/><path class="cls-1" d="M478.16,6.84h9L496,30.07,505,6.84h8.9V40h-5.62V12.46h-.09L498.07,40H494L483.88,12.46h-.1V40h-5.62Z" transform="translate(-1.45 -5.99)"/><path class="cls-1" d="M521.39,6.84h11.15a21.78,21.78,0,0,1,4.61.47,11.37,11.37,0,0,1,3.91,1.56,8.14,8.14,0,0,1,2.69,3,9.63,9.63,0,0,1,1,4.62,10.3,10.3,0,0,1-1.08,5.06,7.67,7.67,0,0,1-2.9,3,12.2,12.2,0,0,1-4.24,1.43,32.83,32.83,0,0,1-5,.37h-4.21V40h-5.9Zm9.46,14.37c.84,0,1.72,0,2.62-.09a8.08,8.08,0,0,0,2.51-.56,4.39,4.39,0,0,0,1.87-1.41,4.19,4.19,0,0,0,.73-2.62,4.12,4.12,0,0,0-.66-2.46,4.39,4.39,0,0,0-1.68-1.4,7,7,0,0,0-2.3-.63,20.54,20.54,0,0,0-2.44-.14h-4.21v9.31Z" transform="translate(-1.45 -5.99)"/></g></g></svg>