<svg xmlns="http://www.w3.org/2000/svg" width="903.42" height="128.18" viewBox="0 0 903.42 128.18"><defs><style>.cls-1{fill:#fff;}</style></defs><title>Asset 2</title><g id="Layer_2" data-name="Layer 2"><g id="Layer_1-2" data-name="Layer 1"><path class="cls-1" d="M55.88,126.28l-1.68,1,.31.18,1.37-.79v1.55L111.71,96V92.47L55.88,124.7Zm0-10.6L45,122l.52.3,10.32-6v1.31l55.83-32.24V82.14L55.88,114.37Zm0-10.58-20,11.56.76.43L55.88,106v1l55.83-32.23v-3L55.88,104Zm55.83-73.65-.83-.47L66.18,56.79l-5.8-3.35L74,45.59v-2l29.42-17-1.44-.83L74,42V40.28L55.78,50.78l-6.27-3.62,44.7-25.81L93,20.65,48.3,46.46l-6.11-3.52,9.92-5.72-1.86-1.07,34.8-20.09-1-.57L49.27,35.58l-1.76-1-9.94,5.72v2.06l-9.32,5.37-.68-.39L0,63.24v2.7L29.92,48.67l-.69-.39,8.33-4.81v2.11l6.13,3.54L37.2,52.86l-.45-.26L0,73.83v2.45L38.88,53.83l-.46-.27,6.48-3.74,6.27,3.62L37.57,61.3v1.42L0,84.41V86.6L37.57,64.91v1.67l5.83,3.36L0,95v1l.85.49L45.07,70.91l6,3.47L37.57,82.12v1.77L8.36,100.76l1.44.83,27.77-16v2L55.78,77.09l5.51,3.18-5.4,3.11v.53L17.53,106.05l1.21.7L55.89,85.31v.52l7.52-4.34,6,3.45-9.74,5.62.85.49-4.6,2.66v.79L26.7,111.36l1,.57,28.2-16.28v.78l6.95-4,1.4.81L74,87.61V86L111.71,64.2V61.49L74,83.28v-1l-6-3.45,43.71-25.23V51.16L65.88,77.62l-5.5-3.18L74,66.6V64.81L111.71,43V40.84L74,62.63V61.29l-6.11-3.54,43.86-25.32v-1ZM42.19,63.94,55.78,56.1l5.8,3.35L55.1,63.18,48,67.29l-5.8-3.35Zm27.17,0L55.72,71.75l-6-3.49,6.24-3.61,7.34-4.24,6.11,3.53ZM20.05,43,75.87,10.77l-.75-.44L19.29,42.56l-.9-.52L0,52.65v3l21-12.1Zm-9.18-5.29L66.71,5.47l-.53-.31L10.34,37.41,9.2,36.75,0,42.06V45.3l12-6.94ZM1.68,32.42,57.53.17,57.23,0,1.38,32.25,0,31.47H0V35l3.05-1.76Z"/><path class="cls-1" d="M194.62,75c0,9.23-4.72,14.73-14.38,14.73H173.8c-9.08,0-13.87-5.15-14.3-13.52-.08-.85.43-1.35,1.36-1.35h5.36a1.37,1.37,0,0,1,1.43,1.35c.29,4.58,2.15,6.16,6.15,6.16h6.44c4.36,0,6.22-1.65,6.22-7.37,0-6-3.36-6.87-8.44-7.94l-3.5-.72c-8.73-1.79-14.59-5.15-14.59-14.23,0-8.44,4.79-13.16,14.52-13.16h4.36c9,0,13.59,5.15,14.09,13.23a1.19,1.19,0,0,1-1.29,1.43h-5.36a1.4,1.4,0,0,1-1.5-1.43c-.29-4.22-2.08-5.87-5.94-5.87h-4.36c-4.44,0-6.37.93-6.37,5.8,0,4.58,1.07,5.72,6.8,6.87l3.5.71C186.25,61.33,194.62,64,194.62,75Z"/><path class="cls-1" d="M201.77,77.06V54.67a1,1,0,0,1,1.07-1.07h5.8a1,1,0,0,1,1.07,1.07V77.85c0,3.29,1.72,4.65,4.72,4.65h.93c3.72,0,6.23-1.79,7.08-3.22V54.67a1,1,0,0,1,1.08-1.07h5.79a.94.94,0,0,1,1.07,1.07V88.29a1,1,0,0,1-1.07,1.08h-5.79a1,1,0,0,1-1.08-1.08V84.86a10.81,10.81,0,0,1-9.51,4.79h-.5C204.49,89.65,201.77,84.57,201.77,77.06Z"/><path class="cls-1" d="M268.44,66.26V76.92c0,7.58-4.72,12.8-12.59,12.8h-1.79a7.67,7.67,0,0,1-7.15-3.86v2.43a1,1,0,0,1-1,1.08H240A1,1,0,0,1,239,88.29V40.37A1,1,0,0,1,240,39.29h5.87a1,1,0,0,1,1,1.08V56.89c1.28-2.07,3.5-3.58,7.15-3.58h1.79C263.72,53.31,268.44,58.61,268.44,66.26Zm-7.94-1c0-3.43-1.86-4.79-4.72-4.79h-4.22c-2.79,0-4.65,1.36-4.65,4.79V77.78c0,3.29,1.86,4.79,4.65,4.79h4.22c2.86,0,4.72-1.5,4.72-4.79Z"/><path class="cls-1" d="M302.42,79.07c0,7.44-4.65,10.65-12.74,10.65h-2.5c-7.65,0-11.87-3.21-12.59-9.29a1,1,0,0,1,1.07-1.08h5.22c1.08,0,1.51.22,1.72.79.79,1.57,1.65,2.5,4.37,2.5H290c3.08,0,4.44-1.21,4.44-3.57,0-3.08-.72-3.87-6.3-4.37-9.94-.78-13.38-3.57-13.38-10.94S279.6,53.39,287,53.39h2.5c7.22,0,12.3,3.79,12.3,10.15,0,.72-.21,1.15-1,1.15h-5.15a1.75,1.75,0,0,1-1.86-1.29c-.64-1.64-1.5-2.93-4.43-2.93H287c-2.72,0-4.23,1.14-4.23,3.14s.58,3.51,5.44,4.08C297.77,68.62,302.42,70.77,302.42,79.07Z"/><path class="cls-1" d="M320.37,60.75V78.57c0,2.79,1.22,3.64,4.65,3.79a1.31,1.31,0,0,1,1.36,1.5l-.22,4.29c-.07.86-.64,1.36-1.71,1.36-9.59,0-12.09-3.58-12.09-11V60.75h-3.51a.94.94,0,0,1-1.07-1.07V54.74c0-.78.36-1.14,1.07-1.14h3.51V49A1,1,0,0,1,313.43,48h5.87A1,1,0,0,1,320.37,49V53.6h5c.78,0,1.14.36,1.14,1.07v5a1,1,0,0,1-1.07,1.07Z"/><path class="cls-1" d="M353.35,61a12,12,0,0,0-3.72-.57h-.93c-3.72,0-6.23,1.79-7.09,3.22v24.6a1,1,0,0,1-1.07,1.08h-5.79a1,1,0,0,1-1.08-1.08V54.67a1,1,0,0,1,1.08-1.07h5.79a.94.94,0,0,1,1.07,1.07v3.44c2-3.15,5.58-4.8,10-4.8a12.26,12.26,0,0,1,5.22,1,1.32,1.32,0,0,1,.5,1.93l-2.22,4.07A1.45,1.45,0,0,1,353.35,61Z"/><path class="cls-1" d="M389.33,89.37h-6.59c-.78,0-1.28-.72-1.28-1.72V85.22c-1.65,2.5-4,4.5-7.66,4.5h-2.21c-6.66,0-11.52-4-11.52-11.15S364,68.19,371.44,68.19h10V65.26c0-3.79-1.36-4.79-5.08-4.79h-1.93A20,20,0,0,0,366.58,62c-1.15.43-1.93.43-2.36-.57L362.72,58c-.29-.71-.36-1.28.35-1.71a23,23,0,0,1,11.38-2.94h1.93c8.87,0,13,3.94,13,12.31v22a4.87,4.87,0,0,0,.14,1.07C389.61,89,389.68,89.37,389.33,89.37Zm-7.87-10.23V74.42h-9.87c-2.15,0-3.65.93-3.65,4.07s1.5,4.08,3.65,4.08h3.79C379.24,82.57,380.6,81,381.46,79.14Z"/><path class="cls-1" d="M407.92,60.75V78.57c0,2.79,1.22,3.64,4.65,3.79a1.31,1.31,0,0,1,1.36,1.5l-.21,4.29c-.07.86-.65,1.36-1.72,1.36-9.58,0-12.09-3.58-12.09-11V60.75h-3.5a1,1,0,0,1-1.08-1.07V54.74c0-.78.36-1.14,1.08-1.14h3.5V49A1,1,0,0,1,401,48h5.87A.94.94,0,0,1,407.92,49V53.6h5c.79,0,1.15.36,1.15,1.07v5A1.05,1.05,0,0,1,413,60.75Z"/><path class="cls-1" d="M448.48,66.33v6.16a1.92,1.92,0,0,1-2.14,2.14h-18.1v3.15c0,3.29,1.86,4.79,4.65,4.79h3.5c4,0,4.94-.79,6.44-2.5.43-.5.86-.5,1.57,0L447.34,82c.71.5.78,1,.36,1.57-2.58,3.15-4.94,6.15-11.31,6.15h-3.5c-7.87,0-12.81-5.86-12.81-13.44v-10c0-7.72,4.94-13,12.81-13h3.5C443.12,53.31,448.48,58.25,448.48,66.33Zm-7.94-1.07c0-3.43-1.64-4.79-4.15-4.79h-3.5c-2.79,0-4.65,1.36-4.65,4.86v3.08h12.3Z"/><path class="cls-1" d="M511.5,53.31v22c0,8.65-4.72,14.09-14.16,14.09H478.88a1,1,0,0,1-1.07-1.08V40.37a1,1,0,0,1,1.07-1.08h18.46C506.78,39.29,511.5,44.66,511.5,53.31Zm-8.15,0c0-5.07-1.86-6.65-6-6.65H486V82h11.38c4.15,0,6-1.57,6-6.72Z"/><path class="cls-1" d="M546.34,66.33v6.16a1.93,1.93,0,0,1-2.15,2.14h-18.1v3.15c0,3.29,1.86,4.79,4.65,4.79h3.51c4,0,4.93-.79,6.44-2.5.42-.5.85-.5,1.57,0L545.19,82c.72.5.79,1,.36,1.57-2.57,3.15-4.94,6.15-11.3,6.15h-3.51c-7.87,0-12.8-5.86-12.8-13.44v-10c0-7.72,4.93-13,12.8-13h3.51C541,53.31,546.34,58.25,546.34,66.33Zm-7.94-1.07c0-3.43-1.65-4.79-4.15-4.79h-3.51c-2.79,0-4.65,1.36-4.65,4.86v3.08H538.4Z"/><path class="cls-1" d="M551,53.6h5.79c.72,0,1.07.43,1.29,1.22l7.15,24.82,7.23-24.82c.21-.79.5-1.22,1.21-1.22h5.87c.71,0,1.14.43.86,1.22L569.08,87.94c-.35,1-.78,1.43-1.64,1.43h-4.37c-.85,0-1.35-.43-1.71-1.43L550.13,54.82C549.84,54,550.27,53.6,551,53.6Z"/><path class="cls-1" d="M612.58,66.33v6.16a1.93,1.93,0,0,1-2.15,2.14h-18.1v3.15c0,3.29,1.86,4.79,4.65,4.79h3.51c4,0,4.93-.79,6.44-2.5.42-.5.85-.5,1.57,0L611.43,82c.72.5.79,1,.36,1.57-2.58,3.15-4.94,6.15-11.3,6.15H597c-7.87,0-12.8-5.86-12.8-13.44v-10c0-7.72,4.93-13,12.8-13h3.51C607.21,53.31,612.58,58.25,612.58,66.33Zm-7.94-1.07c0-3.43-1.65-4.79-4.15-4.79H597c-2.79,0-4.65,1.36-4.65,4.86v3.08h12.31Z"/><path class="cls-1" d="M621.16,39.29H627A1,1,0,0,1,628,40.37V88.29A1,1,0,0,1,627,89.37h-5.79a1,1,0,0,1-1.07-1.08V40.37A1,1,0,0,1,621.16,39.29Z"/><path class="cls-1" d="M664.36,66.26V76.92c0,7.58-4.72,12.8-12.59,12.8h-3.64c-7.87,0-12.59-5.22-12.59-12.8V66.26c0-7.65,4.72-13,12.59-13h3.64C659.64,53.31,664.36,58.61,664.36,66.26Zm-7.94-1c0-3.43-1.86-4.79-4.65-4.79h-3.64c-2.79,0-4.65,1.36-4.65,4.79V77.78c0,3.29,1.86,4.79,4.65,4.79h3.64c2.79,0,4.65-1.5,4.65-4.79Z"/><path class="cls-1" d="M701.35,66.26V76.92c0,7.58-4.72,12.8-12.52,12.8H687a7.7,7.7,0,0,1-7.16-3.86V102.6a1,1,0,0,1-1,1.07H673a1,1,0,0,1-1.08-1.07V54.67A1,1,0,0,1,673,53.6h5.86a1,1,0,0,1,1,1.07v2.22c1.29-2.07,3.51-3.58,7.16-3.58h1.86C696.63,53.31,701.35,58.61,701.35,66.26Zm-7.94-1c0-3.43-1.86-4.79-4.65-4.79h-4.3c-2.79,0-4.65,1.36-4.65,4.79V77.78c0,3.29,1.86,4.79,4.65,4.79h4.3c2.79,0,4.65-1.5,4.65-4.79Z"/><path class="cls-1" d="M736.18,66.33v6.16A1.92,1.92,0,0,1,734,74.63h-18.1v3.15c0,3.29,1.86,4.79,4.65,4.79h3.5c4,0,4.94-.79,6.44-2.5.43-.5.86-.5,1.57,0L735,82c.71.5.78,1,.36,1.57-2.58,3.15-4.94,6.15-11.31,6.15h-3.5c-7.87,0-12.81-5.86-12.81-13.44v-10c0-7.72,4.94-13,12.81-13h3.5C730.82,53.31,736.18,58.25,736.18,66.33Zm-7.94-1.07c0-3.43-1.64-4.79-4.15-4.79h-3.5c-2.79,0-4.65,1.36-4.65,4.86v3.08h12.3Z"/><path class="cls-1" d="M763.36,61a11.86,11.86,0,0,0-3.72-.57h-.93c-3.72,0-6.22,1.79-7.08,3.22v24.6a1,1,0,0,1-1.07,1.08h-5.79a1,1,0,0,1-1.08-1.08V54.67a1,1,0,0,1,1.08-1.07h5.79a1,1,0,0,1,1.07,1.07v3.44c2-3.15,5.58-4.8,10-4.8a12.26,12.26,0,0,1,5.22,1,1.32,1.32,0,0,1,.5,1.93l-2.22,4.07A1.46,1.46,0,0,1,763.36,61Z"/><path class="cls-1" d="M827.81,40.37V88.29a1,1,0,0,1-1.07,1.08h-6a1,1,0,0,1-1.07-1.08v-20H803.35v20a1,1,0,0,1-1.08,1.08h-6a1,1,0,0,1-1.08-1.08V40.37a1,1,0,0,1,1.08-1.08h6a1,1,0,0,1,1.08,1.08V61h16.31V40.37a1,1,0,0,1,1.07-1.08h6A1,1,0,0,1,827.81,40.37Z"/><path class="cls-1" d="M836.75,77.06V54.67a1,1,0,0,1,1.08-1.07h5.79a.94.94,0,0,1,1.07,1.07V77.85c0,3.29,1.72,4.65,4.72,4.65h.93c3.72,0,6.23-1.79,7.09-3.22V54.67a.94.94,0,0,1,1.07-1.07h5.79a1,1,0,0,1,1.08,1.07V88.29a1,1,0,0,1-1.08,1.08H858.5a1,1,0,0,1-1.07-1.08V84.86a10.85,10.85,0,0,1-9.52,4.79h-.5C839.47,89.65,836.75,84.57,836.75,77.06Z"/><path class="cls-1" d="M903.42,66.26V76.92c0,7.58-4.72,12.8-12.59,12.8H889a7.68,7.68,0,0,1-7.15-3.86v2.43a1,1,0,0,1-1,1.08H875A1,1,0,0,1,874,88.29V40.37A1,1,0,0,1,875,39.29h5.87a1,1,0,0,1,1,1.08V56.89c1.29-2.07,3.5-3.58,7.15-3.58h1.79C898.7,53.31,903.42,58.61,903.42,66.26Zm-7.94-1c0-3.43-1.86-4.79-4.72-4.79h-4.22c-2.79,0-4.65,1.36-4.65,4.79V77.78c0,3.29,1.86,4.79,4.65,4.79h4.22c2.86,0,4.72-1.5,4.72-4.79Z"/></g></g></svg>